<svg width="600" height="200" xmlns="http://www.w3.org/2000/svg">
 <g>
  <title>Layer 1</title>
  <rect fill="#ededed" stroke="#000" stroke-width="0" x="224" y="148" width="10" height="10" id="svg_1"/>
  <rect fill="#ededed" stroke="#000" stroke-width="0" x="189" y="45" width="10" height="10" id="svg_2"/>
  <rect fill="#ededed" stroke="#000" stroke-width="0" x="223" y="78" width="10" height="10" id="svg_3"/>
  <rect fill="#ededed" stroke="#000" stroke-width="0" x="38" y="120" width="10" height="10" id="svg_4"/>
  <rect fill="#ededed" stroke="#000" stroke-width="0" x="72" y="153" width="10" height="10" id="svg_5"/>
  <rect fill="#ededed" stroke="#000" stroke-width="0" x="106" y="120" width="10" height="10" id="svg_6"/>
  <rect fill="#ededed" stroke="#000" stroke-width="0" x="38" y="26" width="10" height="10" id="svg_7"/>
  <rect fill="#ededed" stroke="#000" stroke-width="0" x="526" y="139" width="10" height="10" id="svg_8"/>
  <rect fill="#ededed" stroke="#000" stroke-width="0" x="403" y="13" width="10" height="10" id="svg_9"/>
  <rect fill="#ededed" stroke="#000" stroke-width="0" x="444" y="13" width="10" height="10" id="svg_10"/>
  <rect fill="#ededed" stroke="#000" stroke-width="0" x="340" y="111" width="10" height="10" id="svg_11"/>
  <rect fill="#ededed" stroke="#000" stroke-width="0" x="374" y="144" width="10" height="10" id="svg_12"/>
  <rect fill="#ededed" stroke="#000" stroke-width="0" x="365" y="94" width="10" height="10" id="svg_13"/>
  <rect fill="#ededed" stroke="#000" stroke-width="0" x="450" y="115" width="10" height="10" id="svg_14"/>
  <rect fill="#f2f2f2" stroke="#000" stroke-width="0" x="655" y="79" width="20" height="20" id="svg_15"/>
  <rect fill="#ededed" stroke="#000" stroke-width="0" x="469" y="51" width="10" height="10" id="svg_16"/>
  <rect fill="#ededed" stroke="#000" stroke-width="0" x="503" y="84" width="10" height="10" id="svg_17"/>
  <rect fill="#ededed" stroke="#000" stroke-width="0" x="494" y="34" width="10" height="10" id="svg_18"/>
  <rect fill="#ededed" stroke="#000" stroke-width="0" x="298" y="38" width="10" height="10" id="svg_19"/>
 </g>

</svg>